<?xml version="1.0" encoding="UTF-8"?>
<svg width="141px" height="33px" viewBox="0 0 141 33" version="1.1" xmlns="http://www.w3.org/2000/svg" xmlns:xlink="http://www.w3.org/1999/xlink">
    <!-- Generator: Sketch 52.3 (67297) - http://www.bohemiancoding.com/sketch -->
    <title>Logo</title>
    <desc>Created with Sketch.</desc>
    <g id="Symbols" stroke="none" stroke-width="1" fill="none" fill-rule="evenodd">
        <g id="footer" transform="translate(-48.000000, -50.000000)" fill="#F5F5F5">
            <g id="Logo" transform="translate(48.000000, 50.000000)">
                <polygon id="Fill-2" points="42.6931241 29 42.6931241 21.4298734 38.5 25.4795834 34.3058952 21.4298734 34.3058952 29 30 29 30 13 31.9779072 13 38.5 19.29755 45.0211121 13 47 13 47 29"></polygon>
                <polygon id="Fill-3" points="61.5798222 29 61.5798222 21.1704344 52.9820255 29 51 29 51 13 55.4511017 13 55.4511017 20.8248313 63.9870506 13 66 13 66 29"></polygon>
                <polygon id="Fill-4" points="94 29 94 13 105 13 105 16.95029 98.2294972 16.95029 98.2010189 29"></polygon>
                <polygon id="Fill-5" points="139.021112 13 132.5 19.2966031 125.978888 13 124 13 124 29 128.304915 29 128.304915 21.4298734 132.5 25.4795834 136.693124 21.4298734 136.693124 29 141 29 141 13"></polygon>
                <path d="M115.600445,30 C110.85818,30 107,26.1866621 107,21.5004849 C107,16.8133379 110.85818,13 115.600445,13 C117.898476,13 120.057173,13.8844772 121.681102,15.4895316 L122,15.8047236 L118.904232,18.8645102 L118.586315,18.5434993 C117.822921,17.7754008 116.814221,17.3515888 115.746647,17.3515888 C113.513377,17.3515888 111.696147,19.2126761 111.696147,21.5004849 C111.696147,23.7873239 113.513377,25.6484112 115.746647,25.6484112 C116.814221,25.6484112 117.822921,25.2245992 118.586315,24.4565007 L118.904232,24.1354898 L122,27.1952764 L121.681102,27.5114382 C120.057173,29.1155228 117.897495,30 115.600445,30" id="Fill-6"></path>
                <path d="M1.18659598,17.0284898 C0.186280247,19.0019137 -0.198234182,21.2576682 0.0966565835,23.4507897 C0.394438435,25.6631829 1.37066178,27.7792175 2.88269973,29.4250222 C4.58651304,31.2779979 6.90805504,32.5162057 9.40017112,32.8842955 C11.8537394,33.2466038 14.3950039,32.7503571 16.5382623,31.503477 C18.6718837,30.2633419 20.3438951,28.306299 21.2430228,26.0091102 C22.0419262,23.9653446 22.2163551,21.6951362 21.7287252,19.555012 C21.6063359,19.0192582 21.4444351,18.4931403 21.2430228,17.9814762 C20.8681453,18.6299695 17.3063274,24.8258268 16.9179582,25.4685385 C15.6497352,27.5730101 13.3927608,28.862288 10.931483,28.8555429 C8.44996754,28.8497614 6.10047837,27.4014918 4.9430803,25.2151155 C3.95240152,23.3390137 3.88205177,21.0572424 4.77250623,19.1300706 C4.96042682,18.7205466 5.19460478,18.3351122 5.42010948,17.9458235 C5.75258436,17.3695992 11.000869,8.2810571 11.000869,8.2810571 L14.6185812,14.5453289 L11.000869,20.8105644 L9.29609202,17.8591008 C8.96458084,18.4324344 8.63403334,19.005768 8.30348585,19.578138 C8.17820546,19.7939813 8.05292507,20.0088609 7.92957207,20.2247042 C7.61444371,20.7778025 7.44579703,21.4041333 7.45543398,22.0410636 C7.4718168,23.3515404 8.23024501,24.5704765 9.39824373,25.1621182 C10.6799585,25.8125387 12.2719831,25.6082585 13.3474671,24.6581628 C13.8216052,24.239003 14.1116775,23.7051764 14.4210237,23.168459 C14.8228846,22.4717864 19.3994737,14.5462925 19.3994737,14.5462925 L11.0307436,0.0520336378 L11.000869,0 C11.000869,0 1.64146017,16.1323549 1.18659598,17.0284898" id="Fill-8"></path>
                <polygon id="Fill-1" points="79.412783 13 79.412783 25.5943886 73.5322179 25.5943886 73.5322179 13 69 13 69 29.7232421 81.9008279 29.7232421 81.9008279 33 86 33 86 25.5943886 83.9764951 25.5943886 83.9764951 13"></polygon>
            </g>
        </g>
    </g>
</svg>