<?xml version="1.0" encoding="UTF-8"?>
<svg width="69px" height="35px" viewBox="0 0 69 35" version="1.1" xmlns="http://www.w3.org/2000/svg" xmlns:xlink="http://www.w3.org/1999/xlink">
    <!-- Generator: Sketch 52.3 (67297) - http://www.bohemiancoding.com/sketch -->
    <title>noun_sent mail_847114</title>
    <desc>Created with Sketch.</desc>
    <g id="Symbols" stroke="none" stroke-width="1" fill="none" fill-rule="evenodd">
        <g id="contact-us/sent" transform="translate(-547.000000, -161.000000)" fill="#000000" fill-rule="nonzero">
            <g id="noun_sent-mail_847114" transform="translate(547.000000, 161.000000)">
                <path d="M11.6,6.7 L22.4,6.7 L22.4,10.7 L11.6,10.7 L11.6,6.7 Z M5.3,22.6 L22.4,22.6 L22.4,18.6 L5.3,18.6 L5.3,22.6 Z M0,34.5 L22.4,34.5 L22.4,30.5 L0,30.5 L0,34.5 Z M68.9,0 L68.9,34.5 L27.9,34.5 L27.9,0 L68.9,0 Z M65.25,7.58657244 L62.1446996,4.00353357 L48.4097173,16.0664311 L34.5553004,4.00353357 L31.45,7.58657244 L48.4097173,22.3964664 L65.25,7.58657244 Z" id="Shape"></path>
            </g>
        </g>
    </g>
</svg>