<?xml version="1.0" encoding="UTF-8"?>
<svg width="59px" height="63px" viewBox="0 0 59 63" version="1.1" xmlns="http://www.w3.org/2000/svg" xmlns:xlink="http://www.w3.org/1999/xlink">
    <!-- Generator: Sketch 52.3 (67297) - http://www.bohemiancoding.com/sketch -->
    <title>гидравлические системы</title>
    <desc>Created with Sketch.</desc>
    <g id="Symbols" stroke="none" stroke-width="1" fill="none" fill-rule="evenodd">
        <g id="filtr-1" transform="translate(-87.000000, -136.000000)">
            <g id="гидравлические-системы" transform="translate(119.000000, 165.000000) rotate(42.000000) translate(-119.000000, -165.000000) translate(88.000000, 134.000000)">
                <polygon id="Fill-1" points="0 62 62 62 62 0 0 0"></polygon>
                <polygon id="Fill-2" fill="#212121" points="25 53 38 53 38 36 25 36"></polygon>
                <polygon id="Fill-3" fill="#212121" points="37.4285714 24 37.4285714 28.2222222 41.7142857 28.2222222 41.7142857 57.7777778 20.2857143 57.7777778 20.2857143 28.2222222 24.5714286 28.2222222 24.5714286 24 16 24 16 62 46 62 46 24"></polygon>
                <polygon id="Fill-4" fill="#212121" points="29 42 33 42 33 4 29 4"></polygon>
                <polygon id="Fill-5" fill="#212121" points="22 4 39 4 39 0 22 0"></polygon>
            </g>
        </g>
    </g>
</svg>