<?xml version="1.0" encoding="UTF-8"?>
<svg width="62px" height="62px" viewBox="0 0 62 62" version="1.1" xmlns="http://www.w3.org/2000/svg" xmlns:xlink="http://www.w3.org/1999/xlink">
    <!-- Generator: Sketch 52.3 (67297) - http://www.bohemiancoding.com/sketch -->
    <title>двигатели</title>
    <desc>Created with Sketch.</desc>
    <g id="Symbols" stroke="none" stroke-width="1" fill="none" fill-rule="evenodd">
        <g id="filtr-1" transform="translate(-88.000000, -327.000000)">
            <g id="двигатели" transform="translate(88.000000, 327.000000)">
                <polygon id="Fill-1" fill="#FEFEFE" points="0 62 62 62 62 0 0 0"></polygon>
                <polygon id="Fill-2" fill="#212121" points="17.1034483 17.1034483 34.2068966 17.1034483 34.2068966 12.8275862 17.1034483 12.8275862"></polygon>
                <polygon id="Fill-3" fill="#212121" points="4.27586207 42.7586207 8.55172414 42.7586207 8.55172414 25.6551724 4.27586207 25.6551724"></polygon>
                <path d="M38.4827586,21.3793103 L12.8275862,21.3793103 L12.8275862,47.0344828 L25.6551724,47.0344828 L25.6551724,53.4482759 L51.3103448,53.4482759 L51.3103448,27.7931034 L38.4827586,27.7931034 L38.4827586,21.3793103 Z M34.2068966,25.6551724 L34.2068966,27.7931034 L34.2068966,32.0689655 L38.4827586,32.0689655 L47.0344828,32.0689655 L47.0344828,49.1724138 L29.9310345,49.1724138 L29.9310345,47.0344828 L29.9310345,42.7586207 L25.6551724,42.7586207 L17.1034483,42.7586207 L17.1034483,25.6551724 L34.2068966,25.6551724 Z" id="Fill-4" fill="#212121"></path>
                <polygon id="Fill-5" fill="#212121" points="55.5862069 49.1724138 59.862069 49.1724138 59.862069 32.0689655 55.5862069 32.0689655"></polygon>
                <polygon id="Fill-6" fill="#212121" points="8.55172414 36.3448276 17.1034483 36.3448276 17.1034483 32.0689655 8.55172414 32.0689655"></polygon>
                <polygon id="Fill-7" fill="#212121" points="49.1724138 42.7586207 57.7241379 42.7586207 57.7241379 38.4827586 49.1724138 38.4827586"></polygon>
                <polygon id="Fill-8" fill="#212121" points="23.5172414 23.5172414 27.7931034 23.5172414 27.7931034 14.9655172 23.5172414 14.9655172"></polygon>
            </g>
        </g>
    </g>
</svg>