<?xml version="1.0" encoding="UTF-8"?>
<svg width="44px" height="46px" viewBox="0 0 44 46" version="1.1" xmlns="http://www.w3.org/2000/svg" xmlns:xlink="http://www.w3.org/1999/xlink">
    <!-- Generator: Sketch 52.3 (67297) - http://www.bohemiancoding.com/sketch -->
    <title>дизельные топлива</title>
    <desc>Created with Sketch.</desc>
    <g id="Symbols" stroke="none" stroke-width="1" fill="none" fill-rule="evenodd">
        <g id="filtr-1" transform="translate(-812.000000, -146.000000)">
            <g id="дизельные-топлива" transform="translate(801.000000, 138.000000)">
                <rect id="Rectangle" fill-opacity="0" fill="#D8D8D8" fill-rule="nonzero" x="0" y="0" width="62" height="62"></rect>
                <path d="M11.8275862,53.4482759 L41.7586207,53.4482759 L41.7586207,8.55172414 L11.8275862,8.55172414 L11.8275862,53.4482759 Z M16.1034483,49.1724138 L37.4827586,49.1724138 L37.4827586,12.8275862 L16.1034483,12.8275862 L16.1034483,49.1724138 Z" id="Fill-2" fill="#212121"></path>
                <polygon id="Fill-3" fill="#212121" points="20.3793103 25.6551724 33.2068966 25.6551724 33.2068966 17.1034483 20.3793103 17.1034483"></polygon>
                <path d="M43.8490421,44.8965517 L43.8490421,40.6206897 C47.3856552,40.6206897 50.2628352,37.7435096 50.2628352,34.2068966 C50.2628352,31.9171724 49.0921992,30.2842682 47.6101379,28.2168889 C45.7441992,25.613364 43.4214559,22.3734483 43.4214559,17.1034483 L47.697318,17.1034483 C47.697318,20.9989962 49.3430498,23.2948966 51.0854636,25.7257241 C52.7829808,28.0943142 54.5386973,30.5431954 54.5386973,34.2068966 C54.5386973,40.1011724 49.743318,44.8965517 43.8490421,44.8965517" id="Fill-4" fill="#212121"></path>
            </g>
        </g>
    </g>
</svg>