<?xml version="1.0" encoding="UTF-8"?>
<svg width="54px" height="54px" viewBox="0 0 54 54" version="1.1" xmlns="http://www.w3.org/2000/svg" xmlns:xlink="http://www.w3.org/1999/xlink">
    <!-- Generator: Sketch 52.3 (67297) - http://www.bohemiancoding.com/sketch -->
    <title>зубчатые передачи</title>
    <desc>Created with Sketch.</desc>
    <g id="Symbols" stroke="none" stroke-width="1" fill="none" fill-rule="evenodd">
        <g id="filtr-1" transform="translate(-329.000000, -142.000000)">
            <g id="зубчатые-передачи" transform="translate(323.000000, 138.000000)">
                <rect id="Rectangle" fill-opacity="0" fill="#D8D8D8" fill-rule="nonzero" opacity="0.300000012" x="0" y="0" width="62" height="62"></rect>
                <polygon id="Fill-2" fill="#212121" points="22.7060996 28.2643985 26.9819617 28.2643985 26.9819617 20.1839693 22.7060996 20.1839693"></polygon>
                <polygon id="Fill-3" fill="#212121" points="22.7060996 57.7241379 26.9819617 57.7241379 26.9819617 49.6437088 22.7060996 49.6437088"></polygon>
                <polygon id="Fill-4" fill="#212121" points="33.7329303 32.7256904 30.7094207 29.7021808 36.4231602 23.9886789 39.4466697 27.011951"></polygon>
                <polygon id="Fill-5" fill="#212121" points="12.9018092 53.5568352 9.87829962 50.5333257 15.5920391 44.8198238 18.6155487 47.8430958"></polygon>
                <polygon id="Fill-6" fill="#212121" points="31.0722513 47.843167 34.0957609 44.8196575 39.8095004 50.5333969 36.7859908 53.5569065"></polygon>
                <polygon id="Fill-7" fill="#212121" points="10.2411065 27.0120222 13.2646161 23.9885126 18.9783556 29.7022521 15.954846 32.7257617"></polygon>
                <polygon id="Fill-8" fill="#212121" points="35.5336858 41.0919847 43.6141149 41.0919847 43.6141149 36.8161226 35.5336858 36.8161226"></polygon>
                <polygon id="Fill-9" fill="#212121" points="6.27586207 41.0919847 13.6828429 41.0919847 13.6828429 36.8161226 6.27586207 36.8161226"></polygon>
                <path d="M24.8439119,23.9886314 C16.5786705,23.9886314 9.87839464,30.6889073 9.87839464,38.9541487 C9.87839464,47.21939 16.5786705,53.9196659 24.8439119,53.9196659 C33.1091533,53.9196659 39.8094291,47.21939 39.8094291,38.9541487 C39.8094291,30.6889073 33.1091533,23.9886314 24.8439119,23.9886314 M24.8439119,28.2644935 C30.7381877,28.2644935 35.533567,33.0598728 35.533567,38.9541487 C35.533567,44.8484245 30.7381877,49.6438038 24.8439119,49.6438038 C18.949636,49.6438038 14.1542567,44.8484245 14.1542567,38.9541487 C14.1542567,33.0598728 18.949636,28.2644935 24.8439119,28.2644935" id="Fill-10" fill="#212121"></path>
                <polygon id="Fill-12" fill="#212121" points="51.6437088 19.2413793 59.7241379 19.2413793 59.7241379 14.9655172 51.6437088 14.9655172"></polygon>
                <polygon id="Fill-14" fill="#212121" points="34.5402605 19.2413793 42.6206897 19.2413793 42.6206897 14.9655172 34.5402605 14.9655172"></polygon>
                <polygon id="Fill-15" fill="#212121" points="44.9942682 29.4597395 49.2701303 29.4597395 49.2701303 21.3793103 44.9942682 21.3793103"></polygon>
                <polygon id="Fill-16" fill="#212121" points="44.9942682 12.3562912 49.2701303 12.3562912 49.2701303 4.27586207 44.9942682 4.27586207"></polygon>
                <path d="M46.8965517,8.55172414 C42.1736245,8.55172414 38.3448276,12.3805211 38.3448276,17.1034483 C38.3448276,21.8263755 42.1736245,25.6551724 46.8965517,25.6551724 C51.6194789,25.6551724 55.4482759,21.8263755 55.4482759,17.1034483 C55.4482759,12.3805211 51.6194789,8.55172414 46.8965517,8.55172414 M46.8965517,12.8275862 C49.2542146,12.8275862 51.1724138,14.7457854 51.1724138,17.1034483 C51.1724138,19.4611111 49.2542146,21.3793103 46.8965517,21.3793103 C44.5388889,21.3793103 42.6206897,19.4611111 42.6206897,17.1034483 C42.6206897,14.7457854 44.5388889,12.8275862 46.8965517,12.8275862" id="Fill-17" fill="#212121"></path>
            </g>
        </g>
    </g>
</svg>