<?xml version="1.0" encoding="UTF-8"?>
<svg width="40px" height="40px" viewBox="0 0 40 40" version="1.1" xmlns="http://www.w3.org/2000/svg" xmlns:xlink="http://www.w3.org/1999/xlink">
    <!-- Generator: Sketch 52.3 (67297) - http://www.bohemiancoding.com/sketch -->
    <title>индустриальные пары</title>
    <desc>Created with Sketch.</desc>
    <g id="Symbols" stroke="none" stroke-width="1" fill="none" fill-rule="evenodd">
        <g id="filtr-1" transform="translate(-573.000000, -147.000000)">
            <g id="индустриальные-пары" transform="translate(562.000000, 136.000000)">
                <polygon id="Fill-1" fill-opacity="0" fill="#FEFEFE" points="0 62 62 62 62 0 0 0"></polygon>
                <path d="M31,11.7586207 C20.373295,11.7586207 11.7586207,20.373295 11.7586207,31 C11.7586207,41.626705 20.373295,50.2413793 31,50.2413793 C41.626705,50.2413793 50.2413793,41.626705 50.2413793,31 C50.2413793,20.373295 41.626705,11.7586207 31,11.7586207 M31,16.0344828 C39.2519387,16.0344828 45.9655172,22.7480613 45.9655172,31 C45.9655172,39.2519387 39.2519387,45.9655172 31,45.9655172 C22.7480613,45.9655172 16.0344828,39.2519387 16.0344828,31 C16.0344828,22.7480613 22.7480613,16.0344828 31,16.0344828" id="Fill-2" fill="#212121"></path>
                <path d="M31,37.4137931 C27.463387,37.4137931 24.5862069,34.536613 24.5862069,31 C24.5862069,27.463387 27.463387,24.5862069 31,24.5862069 C34.536613,24.5862069 37.4137931,27.463387 37.4137931,31 C37.4137931,34.536613 34.536613,37.4137931 31,37.4137931" id="Fill-4" fill="#212121"></path>
                <path d="M31,22.4482759 C26.2770728,22.4482759 22.4482759,26.2770728 22.4482759,31 C22.4482759,35.7229272 26.2770728,39.5517241 31,39.5517241 C35.7229272,39.5517241 39.5517241,35.7229272 39.5517241,31 C39.5517241,26.2770728 35.7229272,22.4482759 31,22.4482759 M31,26.7241379 C33.3576628,26.7241379 35.2758621,28.6423372 35.2758621,31 C35.2758621,33.3576628 33.3576628,35.2758621 31,35.2758621 C28.6423372,35.2758621 26.7241379,33.3576628 26.7241379,31 C26.7241379,28.6423372 28.6423372,26.7241379 31,26.7241379" id="Fill-6" fill="#212121"></path>
                <path d="M33.0200835,19.1235318 C33.0200835,20.2390567 32.1157387,21.1436391 30.9999762,21.1436391 C29.8842138,21.1436391 28.979869,20.2390567 28.979869,19.1235318 C28.979869,18.0080069 29.8842138,17.1034245 30.9999762,17.1034245 C32.1157387,17.1034245 33.0200835,18.0080069 33.0200835,19.1235318" id="Fill-8" fill="#212121"></path>
                <path d="M33.0200835,42.6407732 C33.0200835,43.7562981 32.1157387,44.6608805 30.9999762,44.6608805 C29.8842138,44.6608805 28.979869,43.7562981 28.979869,42.6407732 C28.979869,41.5252483 29.8842138,40.6206659 30.9999762,40.6206659 C32.1157387,40.6206659 33.0200835,41.5252483 33.0200835,42.6407732" id="Fill-10" fill="#212121"></path>
                <path d="M45.0413134,30.048882 C45.0413134,31.1644069 44.1369686,32.0689893 43.0212061,32.0689893 C41.9054437,32.0689893 41.0010989,31.1644069 41.0010989,30.048882 C41.0010989,28.9333571 41.9054437,28.0287747 43.0212061,28.0287747 C44.1369686,28.0287747 45.0413134,28.9333571 45.0413134,30.048882" id="Fill-12" fill="#212121"></path>
                <path d="M21.524072,30.048882 C21.524072,31.1644069 20.6197272,32.0689893 19.5039648,32.0689893 C18.3882023,32.0689893 17.4838575,31.1644069 17.4838575,30.048882 C17.4838575,28.9333571 18.3882023,28.0287747 19.5039648,28.0287747 C20.6197272,28.0287747 21.524072,28.9333571 21.524072,30.048882" id="Fill-14" fill="#212121"></path>
                <path d="M40.4094858,20.543023 C41.1983824,21.3319195 41.1983824,22.6108774 40.4094858,23.3997739 C39.6205893,24.188908 38.3413939,24.188908 37.5527349,23.3997739 C36.7638383,22.6108774 36.7638383,21.3319195 37.5527349,20.543023 C38.3413939,19.7541264 39.6205893,19.7541264 40.4094858,20.543023" id="Fill-16" fill="#212121"></path>
                <path d="M23.7803019,37.1720644 C24.5691985,37.9609609 24.5691985,39.2401563 23.7803019,40.0288153 C22.9914054,40.8179494 21.71221,40.8179494 20.923551,40.0288153 C20.1344169,39.2401563 20.1344169,37.9609609 20.923551,37.1720644 C21.71221,36.3834054 22.9914054,36.3834054 23.7803019,37.1720644" id="Fill-18" fill="#212121"></path>
                <path d="M41.8374337,40.0289103 C41.0485372,40.8178069 39.7695793,40.8178069 38.9806828,40.0289103 C38.1917862,39.2402513 38.1917862,37.9610559 38.9806828,37.1721594 C39.7695793,36.3832628 41.0485372,36.3832628 41.8374337,37.1721594 C42.6263303,37.9610559 42.6263303,39.2402513 41.8374337,40.0289103" id="Fill-20" fill="#212121"></path>
                <path d="M25.2082736,23.399869 C24.419377,24.1887655 23.1401816,24.1887655 22.3515226,23.399869 C21.5626261,22.6109724 21.5626261,21.3320146 22.3515226,20.543118 C23.1401816,19.7539839 24.419377,19.7539839 25.2082736,20.543118 C25.9971701,21.3320146 25.9971701,22.6109724 25.2082736,23.399869" id="Fill-22" fill="#212121"></path>
            </g>
        </g>
    </g>
</svg>