<?xml version="1.0" encoding="UTF-8"?>
<svg width="62px" height="62px" viewBox="0 0 62 62" version="1.1" xmlns="http://www.w3.org/2000/svg" xmlns:xlink="http://www.w3.org/1999/xlink">
    <!-- Generator: Sketch 52.3 (67297) - http://www.bohemiancoding.com/sketch -->
    <title>компрессоры</title>
    <desc>Created with Sketch.</desc>
    <g id="Symbols" stroke="none" stroke-width="1" fill="none" fill-rule="evenodd">
        <g id="filtr-1" transform="translate(-562.000000, -327.000000)">
            <g id="компрессоры" style="mix-blend-mode: multiply;" transform="translate(562.000000, 327.000000)">
                <polygon id="Fill-1" fill="#FEFEFE" points="0 62 62 62 62 0 0 0"></polygon>
                <path d="M0,49.1724138 L62,49.1724138 L62,10.6896552 L0,10.6896552 L0,49.1724138 Z M4.27586207,44.8965517 L57.7241379,44.8965517 L57.7241379,14.9655172 L4.27586207,14.9655172 L4.27586207,44.8965517 Z" id="Fill-2" fill="#212121"></path>
                <path d="M19.2413793,36.3448276 C15.7047663,36.3448276 12.8275862,33.4676475 12.8275862,29.9310345 C12.8275862,26.3944215 15.7047663,23.5172414 19.2413793,23.5172414 C22.7779923,23.5172414 25.6551724,26.3944215 25.6551724,29.9310345 C25.6551724,33.4676475 22.7779923,36.3448276 19.2413793,36.3448276" id="Fill-3" fill="#212121"></path>
                <path d="M19.2413793,21.3793103 C14.5182146,21.3793103 10.6896552,25.2081073 10.6896552,29.9310345 C10.6896552,34.6539617 14.5182146,38.4827586 19.2413793,38.4827586 C23.9645441,38.4827586 27.7931034,34.6539617 27.7931034,29.9310345 C27.7931034,25.2081073 23.9645441,21.3793103 19.2413793,21.3793103 M19.2413793,25.6551724 C21.5992797,25.6551724 23.5172414,27.5733716 23.5172414,29.9310345 C23.5172414,32.2886973 21.5992797,34.2068966 19.2413793,34.2068966 C16.8834789,34.2068966 14.9655172,32.2886973 14.9655172,29.9310345 C14.9655172,27.5733716 16.8834789,25.6551724 19.2413793,25.6551724" id="Fill-5" fill="#212121"></path>
                <polygon id="Fill-7" fill="#212121" points="17.1034483 42.7586207 21.3793103 42.7586207 21.3793103 17.1034483 17.1034483 17.1034483"></polygon>
                <polygon id="Fill-9" fill="#212121" points="6.4137931 32.0689655 32.0689655 32.0689655 32.0689655 27.7931034 6.4137931 27.7931034"></polygon>
                <path d="M44.7891563,36.3448276 C43.0759609,36.3448276 41.4653862,35.6775556 40.253892,34.4662989 C37.7532253,31.9653946 37.7532253,27.8966743 40.253892,25.3955326 C41.4653862,24.1845134 43.0759609,23.5172414 44.7891563,23.5172414 C46.5023517,23.5172414 48.1129264,24.1845134 49.3246582,25.3957701 C51.8250874,27.8966743 51.8250874,31.9653946 49.3244207,34.4665364 C48.1129264,35.6775556 46.5023517,36.3448276 44.7891563,36.3448276" id="Fill-10" fill="#212121"></path>
                <path d="M44.7891563,21.3793103 C42.60039,21.3793103 40.4118613,22.2142912 38.7421372,23.8840153 C35.4024513,27.2239387 35.4024513,32.6381303 38.7421372,35.9780536 C40.4118613,37.6477778 42.60039,38.4827586 44.7891563,38.4827586 C46.9776851,38.4827586 49.1664513,37.6477778 50.8361755,35.9780536 C54.1758613,32.6381303 54.1758613,27.2239387 50.8361755,23.8840153 C49.1664513,22.2142912 46.9776851,21.3793103 44.7891563,21.3793103 M44.7891563,25.6551724 C45.9312866,25.6551724 47.0050031,26.0998621 47.8126659,26.9075249 C49.479777,28.574636 49.479777,31.287433 47.8126659,32.9545441 C47.0050031,33.7622069 45.9312866,34.2068966 44.7891563,34.2068966 C43.6470261,34.2068966 42.5733096,33.7622069 41.7656467,32.9545441 C40.0985356,31.287433 40.0985356,28.574636 41.7654092,26.9075249 C42.5733096,26.0998621 43.6470261,25.6551724 44.7891563,25.6551724" id="Fill-11" fill="#212121"></path>
                <polygon id="Fill-12" fill="#212121" points="37.2302874 40.5132943 34.2067778 37.4895471 52.3478352 19.3487272 55.3713448 22.3724743"></polygon>
                <polygon id="Fill-13" fill="#212121" points="34.2068966 22.3724268 37.2304061 19.3486797 55.3714636 37.4897372 52.3477165 40.5132467"></polygon>
            </g>
        </g>
    </g>
</svg>