<?xml version="1.0" encoding="UTF-8"?>
<svg width="37px" height="51px" viewBox="0 0 37 51" version="1.1" xmlns="http://www.w3.org/2000/svg" xmlns:xlink="http://www.w3.org/1999/xlink">
    <!-- Generator: Sketch 52.3 (67297) - http://www.bohemiancoding.com/sketch -->
    <title>масла</title>
    <desc>Created with Sketch.</desc>
    <g id="Symbols" stroke="none" stroke-width="1" fill="none" fill-rule="evenodd">
        <g id="filtr-2" transform="translate(-101.000000, -144.000000)">
            <g id="масла" transform="translate(88.000000, 138.000000)">
                <polygon id="Fill-1" points="0 62 62 62 62 0 0 0"></polygon>
                <path d="M31.2229165,12.5423065 C27.2976751,17.0875479 17.3263648,29.4908736 17.3263648,38.1877395 C17.3263648,45.8503218 23.5603341,52.0842912 31.2229165,52.0842912 C38.8854989,52.0842912 45.1194682,45.8503218 45.1194682,38.1877395 C45.1194682,29.4908736 35.1481579,17.0875479 31.2229165,12.5423065 M31.2229165,56.3601533 C21.2026713,56.3601533 13.0505027,48.2082222 13.0505027,38.1877395 C13.0505027,25.7269272 28.9849778,8.5871341 29.663177,7.86356322 L31.2229165,6.19977778 L32.7826559,7.86356322 C33.4608552,8.5871341 49.3953303,25.7269272 49.3953303,38.1877395 C49.3953303,48.2082222 41.2431617,56.3601533 31.2229165,56.3601533" id="Fill-2" fill="#212121"></path>
                <path d="M32.291882,48.8773946 C25.8082498,48.8773946 20.5332613,43.6024061 20.5332613,37.1187739 L24.8091234,37.1187739 C24.8091234,41.2447433 28.1659126,44.6015326 32.291882,44.6015326 L32.291882,48.8773946 Z" id="Fill-4" fill="#212121"></path>
            </g>
        </g>
    </g>
</svg>