<?xml version="1.0" encoding="UTF-8"?>
<svg width="43px" height="58px" viewBox="0 0 43 58" version="1.1" xmlns="http://www.w3.org/2000/svg" xmlns:xlink="http://www.w3.org/1999/xlink">
    <!-- Generator: Sketch 52.3 (67297) - http://www.bohemiancoding.com/sketch -->
    <title>охлаждающие жидкости</title>
    <desc>Created with Sketch.</desc>
    <defs>
        <polygon id="path-1" points="0 62 62 62 62 0 0 0"></polygon>
    </defs>
    <g id="Symbols" stroke="none" stroke-width="1" fill="none" fill-rule="evenodd">
        <g id="filtr-1" transform="translate(-808.000000, -329.000000)">
            <g id="охлаждающие-жидкости" transform="translate(798.000000, 326.000000)">
                <path d="M31.4068245,33.1520889 C29.638518,33.1520889 28.199928,31.7134989 28.199928,29.9451923 C28.199928,28.1768858 29.638518,26.7382958 31.4068245,26.7382958 C33.175131,26.7382958 34.6137211,28.1768858 34.6137211,29.9451923 C34.6137211,31.7134989 33.175131,33.1520889 31.4068245,33.1520889" id="Fill-2" fill="#212121"></path>
                <path d="M31.4068245,24.6003648 C28.4550544,24.6003648 26.0619969,26.9934222 26.0619969,29.9451923 C26.0619969,32.8972 28.4550544,35.2900199 31.4068245,35.2900199 C34.3585946,35.2900199 36.7516521,32.8972 36.7516521,29.9451923 C36.7516521,26.9934222 34.3585946,24.6003648 31.4068245,24.6003648 M31.4068245,28.8762268 C31.9961808,28.8762268 32.47579,29.3560736 32.47579,29.9451923 C32.47579,30.5345487 31.9961808,31.0141579 31.4068245,31.0141579 C30.8174682,31.0141579 30.337859,30.5345487 30.337859,29.9451923 C30.337859,29.3560736 30.8174682,28.8762268 31.4068245,28.8762268" id="Fill-4" fill="#212121"></path>
                <mask id="mask-2" fill="white">
                    <use xlink:href="#path-1"></use>
                </mask>
                <g id="Clip-7"></g>
                <polygon id="Fill-6" fill="#212121" mask="url(#mask-2)" points="29.2689885 33.1521839 33.5448506 33.1521839 33.5448506 3.22114943 29.2689885 3.22114943"></polygon>
                <polygon id="Fill-8" fill="#212121" mask="url(#mask-2)" points="29.9816322 11.7728736 38.5333563 11.7728736 38.5333563 7.49701149 29.9816322 7.49701149"></polygon>
                <polygon id="Fill-9" fill="#212121" mask="url(#mask-2)" points="29.9816322 20.3245977 38.5333563 20.3245977 38.5333563 16.0487356 29.9816322 16.0487356"></polygon>
                <polygon id="Fill-10" fill="#212121" mask="url(#mask-2)" points="18.1036912 47.8603418 9.97218927 40.0535678 12.9334613 36.9690084 18.1036912 41.9328092 24.7545571 35.5475218 31.405423 41.9328092 38.0565264 35.5477594 44.7088176 41.9330467 49.8804728 36.9687709 52.8412697 40.0538054 44.7088176 47.8601042 38.056764 41.4748169 31.405423 47.8603418 24.7545571 41.4750544"></polygon>
                <polygon id="Fill-11" fill="#212121" mask="url(#mask-2)" points="18.1036912 60.687928 9.97218927 52.881154 12.9334613 49.7965946 18.1036912 54.7603954 24.7545571 48.375108 31.405423 54.7603954 38.0565264 48.3753456 44.7088176 54.760633 49.8804728 49.7963571 52.8412697 52.8813916 44.7088176 60.6876904 38.056764 54.3024031 31.405423 60.687928 24.7545571 54.3026406"></polygon>
            </g>
        </g>
    </g>
</svg>