<?xml version="1.0" encoding="UTF-8"?>
<svg width="43px" height="36px" viewBox="0 0 43 36" version="1.1" xmlns="http://www.w3.org/2000/svg" xmlns:xlink="http://www.w3.org/1999/xlink">
    <!-- Generator: Sketch 52.3 (67297) - http://www.bohemiancoding.com/sketch -->
    <title>теплоносители</title>
    <desc>Created with Sketch.</desc>
    <defs>
        <polygon id="path-1" points="0 62 62 62 62 0 0 0"></polygon>
    </defs>
    <g id="Symbols" stroke="none" stroke-width="1" fill="none" fill-rule="evenodd">
        <g id="filtr-1" transform="translate(-1048.000000, -151.000000)">
            <g id="теплоносители" transform="translate(1036.000000, 138.000000)">
                <mask id="mask-2" fill="white">
                    <use xlink:href="#path-1"></use>
                </mask>
                <g id="Clip-5"></g>
                <path d="M52.990046,18.1724138 L52.990046,22.4482759 L48.7141839,22.4482759 L44.4383218,22.4482759 L44.4383218,18.1724138 L48.7141839,18.1724138 L48.7141839,13.8965517 L52.990046,13.8965517 L52.990046,18.1724138 Z M40.1624598,18.1724138 L42.3003908,18.1724138 L42.3003908,43.8275862 L40.1624598,43.8275862 L40.1624598,48.1034483 L35.8865977,48.1034483 L35.8865977,43.8275862 L33.7486667,43.8275862 L33.7486667,18.1724138 L35.8865977,18.1724138 L35.8865977,13.8965517 L40.1624598,13.8965517 L40.1624598,18.1724138 Z M29.4728046,18.1724138 L31.6107356,18.1724138 L31.6107356,43.8275862 L29.4728046,43.8275862 L29.4728046,48.1034483 L25.1969425,48.1034483 L25.1969425,43.8275862 L23.0590115,43.8275862 L23.0590115,18.1724138 L25.1969425,18.1724138 L25.1969425,13.8965517 L29.4728046,13.8965517 L29.4728046,18.1724138 Z M18.7831494,18.1724138 L20.9210805,18.1724138 L20.9210805,43.8275862 L18.7831494,43.8275862 L18.7831494,48.1034483 L14.5072874,48.1034483 L14.5072874,43.8275862 L12.3693563,43.8275862 L12.3693563,18.1724138 L14.5072874,18.1724138 L14.5072874,13.8965517 L18.7831494,13.8965517 L18.7831494,18.1724138 Z M54.211731,31.4581586 C54.211731,33.5666337 52.5025739,35.2757908 50.3940989,35.2757908 C48.2856238,35.2757908 46.5762291,33.5666337 46.5762291,31.4581586 C46.5762291,28.6584192 50.3940989,24.5861356 50.3940989,24.5861356 C50.3940989,24.5861356 54.211731,28.6584192 54.211731,31.4581586 Z" id="Combined-Shape" fill="#212121" mask="url(#mask-2)"></path>
            </g>
        </g>
    </g>
</svg>