<?xml version="1.0" encoding="UTF-8"?>
<svg width="48px" height="42px" viewBox="0 0 48 42" version="1.1" xmlns="http://www.w3.org/2000/svg" xmlns:xlink="http://www.w3.org/1999/xlink">
    <!-- Generator: Sketch 52.3 (67297) - http://www.bohemiancoding.com/sketch -->
    <title>трансформаторные масла</title>
    <desc>Created with Sketch.</desc>
    <g id="Symbols" stroke="none" stroke-width="1" fill="none" fill-rule="evenodd">
        <g id="filtr-1" transform="translate(-1042.000000, -339.000000)">
            <g id="трансформаторные-масла" transform="translate(1036.000000, 327.000000)">
                <polygon id="Fill-1" points="0 62 62 62 62 0 0 0"></polygon>
                <path d="M6.4137931,53.4482759 L53.4482759,53.4482759 L53.4482759,19.2413793 L6.4137931,19.2413793 L6.4137931,53.4482759 Z M10.6896552,49.1724138 L49.1724138,49.1724138 L49.1724138,23.5172414 L10.6896552,23.5172414 L10.6896552,49.1724138 Z" id="Fill-2" fill="#212121"></path>
                <polygon id="Fill-3" fill="#212121" points="17.1034483 17.1034483 21.3793103 17.1034483 21.3793103 12.8275862 17.1034483 12.8275862"></polygon>
                <polygon id="Fill-4" fill="#212121" points="14.9655172 44.8965517 23.5172414 44.8965517 23.5172414 27.7931034 14.9655172 27.7931034"></polygon>
                <polygon id="Fill-5" fill="#212121" points="25.6551724 44.8965517 34.2068966 44.8965517 34.2068966 27.7931034 25.6551724 27.7931034"></polygon>
                <polygon id="Fill-6" fill="#212121" points="36.3448276 44.8965517 44.8965517 44.8965517 44.8965517 27.7931034 36.3448276 27.7931034"></polygon>
                <polygon id="Fill-7" fill="#212121" points="27.7931034 17.1034483 32.0689655 17.1034483 32.0689655 12.8275862 27.7931034 12.8275862"></polygon>
                <polygon id="Fill-8" fill="#212121" points="38.4827586 17.1034483 42.7586207 17.1034483 42.7586207 12.8275862 38.4827586 12.8275862"></polygon>
            </g>
        </g>
    </g>
</svg>