<?xml version="1.0" encoding="UTF-8"?>
<svg width="62px" height="62px" viewBox="0 0 62 62" version="1.1" xmlns="http://www.w3.org/2000/svg" xmlns:xlink="http://www.w3.org/1999/xlink">
    <!-- Generator: Sketch 52.3 (67297) - http://www.bohemiancoding.com/sketch -->
    <title>турбины</title>
    <desc>Created with Sketch.</desc>
    <g id="Symbols" stroke="none" stroke-width="1" fill="none" fill-rule="evenodd">
        <g id="filtr-1" transform="translate(-325.000000, -327.000000)">
            <g id="турбины" transform="translate(325.000000, 327.000000)">
                <polygon id="Fill-1" fill="#FEFEFE" points="0 62 62 62 62 0 0 0"></polygon>
                <path d="M35.4213126,31 C35.4213126,33.4196628 33.4415885,35.399387 31.0219257,35.399387 C28.6025004,35.399387 26.6227762,33.4196628 26.6227762,31 C26.6227762,28.5803372 28.6025004,26.600613 31.0219257,26.600613 C33.4415885,26.600613 35.4213126,28.5803372 35.4213126,31 Z M47.2994199,29.2402452 C45.0997264,30.8679234 42.5040406,31.7038544 39.864646,31.7038544 C43.5601785,29.988046 46.5955655,26.952659 48.26719,23.0371571 L49.1470674,21.0134866 L45.0997264,19.2976782 L44.219849,21.3215862 C43.1641862,23.8291418 41.2723548,25.8528123 39.0289525,27.1726284 C41.3604851,23.8291418 42.5040406,19.6936705 42.0201556,15.4703065 L41.7562398,13.2708506 L37.3568529,13.8426284 L37.6210061,16.0423218 C37.9291057,18.7700843 37.3568529,21.4534253 36.0372743,23.7410115 C36.4332667,19.6497241 35.3334199,15.4703065 32.7816805,12.0828736 L31.4618644,10.3233563 L27.9425923,12.962751 L29.2621709,14.7225057 C30.8900866,16.9221992 31.7257801,19.5178851 31.7257801,22.1572797 C30.0102092,18.4619847 26.9745847,15.4263602 23.1032667,13.7547356 L21.0795962,12.8748582 L19.3198414,16.9221992 L21.3435119,17.8018391 C23.8510674,18.857977 25.8747379,20.7495709 27.194554,22.9932107 C23.8510674,20.6616782 19.7158337,19.5178851 15.4922322,20.0017701 L13.2927762,20.2656858 L13.8206077,24.6208889 L16.0203011,24.3569732 C18.7480636,24.0491111 21.4314046,24.6208889 23.7189908,25.940705 C19.6716498,25.5888966 15.4922322,26.6887433 12.1050368,29.2402452 L10.3450444,30.5600613 L12.9849142,34.0795709 L14.7444314,32.7597548 C16.9441249,31.1320766 19.5837571,30.2961456 22.1794429,30.2961456 C18.4839103,32.011954 15.4485234,35.047341 13.7766613,38.9188966 L12.8967839,40.9423295 L16.9441249,42.6581379 L17.8240023,40.634705 C18.8799027,38.1269119 20.7714966,36.1030038 23.0151364,34.7834253 C20.6836038,38.1269119 19.5398107,42.2621456 20.0676421,46.4855096 L20.3317954,48.6852031 L24.6869985,48.1573716 L24.4230828,45.9576782 C24.1149831,43.2299157 24.6869985,40.5465747 26.0068146,38.2589885 C25.6108222,42.3502759 26.710669,46.5296935 29.2621709,49.9171264 L30.581987,51.6768812 L34.1014966,49.037249 L32.7816805,47.2772567 C31.1540023,45.0778008 30.3183088,42.4821149 30.3183088,39.8427203 C32.0338797,43.5380153 35.0695042,46.6175862 38.9847686,48.2892107 L41.0086766,49.1690881 L42.7242475,45.1217471 L40.700577,44.1981609 C38.1927839,43.142023 36.1691134,41.2504291 34.8495349,38.9628429 C37.6649525,40.9423295 41.0523854,42.0421762 44.571895,42.0421762 C45.2318031,42.0421762 45.8917111,41.9982299 46.5513816,41.9103372 L48.7510751,41.6461839 L48.1792973,37.3349272 L45.9796038,37.5988429 C43.2520789,37.9069425 40.5685004,37.3349272 38.2809142,36.0151111 C38.7647992,36.059295 39.2926307,36.1030038 39.7767533,36.1030038 C43.3402092,36.1030038 46.9036651,35.0033946 49.8951057,32.7597548 L51.6548605,31.4399387 L49.0152284,27.9204291 L47.2994199,29.2402452 Z" id="Fill-2" fill="#212121"></path>
            </g>
        </g>
    </g>
</svg>