<?xml version="1.0" encoding="UTF-8"?>
<svg width="41px" height="41px" viewBox="0 0 41 41" version="1.1" xmlns="http://www.w3.org/2000/svg" xmlns:xlink="http://www.w3.org/1999/xlink">
    <!-- Generator: Sketch 52.3 (67297) - http://www.bohemiancoding.com/sketch -->
    <title>Mask</title>
    <desc>Created with Sketch.</desc>
    <defs>
        <path d="M23.4831067,20.5 L40.6823743,37.6992676 C41.1510035,38.1678967 41.1510035,38.9276947 40.6823743,39.3963239 L39.3963239,40.6823743 C38.9276947,41.1510035 38.1678967,41.1510035 37.6992676,40.6823743 L20.5,23.4831067 L3.3007324,40.6823743 C2.83210325,41.1510035 2.07230528,41.1510035 1.60367613,40.6823743 L0.317625669,39.3963239 C-0.151003481,38.9276947 -0.151003481,38.1678967 0.317625669,37.6992676 L17.5168933,20.5 L0.317625669,3.3007324 C-0.151003481,2.83210325 -0.151003481,2.07230528 0.317625669,1.60367613 L1.60367613,0.317625669 C2.07230528,-0.151003481 2.83210325,-0.151003481 3.3007324,0.317625669 L20.5,17.5168933 L37.6992676,0.317625669 C38.1678967,-0.151003481 38.9276947,-0.151003481 39.3963239,0.317625669 L40.6823743,1.60367613 C41.1510035,2.07230528 41.1510035,2.83210325 40.6823743,3.3007324 L23.4831067,20.5 Z" id="path-1"></path>
    </defs>
    <g id="desktop" stroke="none" stroke-width="1" fill="none" fill-rule="evenodd">
        <g id="Group-10" transform="translate(-99.000000, -75.000000)">
            <g id="↳Color/BG-Color-Dark" transform="translate(99.000000, 75.000000)">
                <mask id="mask-2" fill="white">
                    <use xlink:href="#path-1"></use>
                </mask>
                <use id="Mask" fill="#231F20" xlink:href="#path-1"></use>
            </g>
        </g>
    </g>
</svg>