<?xml version="1.0" encoding="UTF-8"?>
<svg width="516px" height="121px" viewBox="0 0 516 121" version="1.1" xmlns="http://www.w3.org/2000/svg" xmlns:xlink="http://www.w3.org/1999/xlink">
    <!-- Generator: Sketch 52.3 (67297) - http://www.bohemiancoding.com/sketch -->
    <title>Logo/color</title>
    <desc>Created with Sketch.</desc>
    <defs>
        <polygon id="path-1" points="0 0.394 80.3930369 0.394 80.3930369 121 0 121"></polygon>
    </defs>
    <g id="Logo/color" stroke="none" stroke-width="1" fill="none" fill-rule="evenodd">
        <polygon id="Fill-1" fill="#1E1D1E" points="299.4707 118.9498 299.4707 107.2908 253.3047 107.2908 253.3047 47.7818 269.5257 47.7818 269.5257 92.5978 290.5647 92.5978 290.5647 47.7818 306.8947 47.7818 306.8947 92.5978 314.1367 92.5978 314.1367 118.9498"></polygon>
        <polygon id="Fill-2" fill="#1E1D1E" points="156.8721 107.2906 156.8721 79.1346 141.8111 94.1946 126.7501 79.1346 126.7501 107.2906 111.2861 107.2906 111.2861 47.7816 118.3911 47.7816 141.8111 71.2026 165.2311 47.7816 172.3361 47.7816 172.3361 107.2906"></polygon>
        <polygon id="Fill-3" fill="#1E1D1E" points="224.042 107.2906 224.042 78.1716 192.709 107.2906 185.489 107.2906 185.489 47.7816 201.709 47.7816 201.709 76.8856 232.818 47.7816 240.152 47.7816 240.152 107.2906"></polygon>
        <polygon id="Fill-4" fill="#FDBA0D" points="345.8311 107.2906 345.8311 47.7816 387.9971 47.7816 387.9971 62.4736 362.0481 62.4736 361.9381 107.2906"></polygon>
        <polygon id="Fill-5" fill="#FDBA0D" points="509.1687 47.7816 485.7487 71.2016 462.3287 47.7816 455.2247 47.7816 455.2247 107.2906 470.6887 107.2906 470.6887 79.1336 485.7487 94.1946 500.8107 79.1336 500.8107 107.2906 516.2737 107.2906 516.2737 47.7816"></polygon>
        <path d="M423.1841,108.401 C406.1631,108.401 392.3181,94.554 392.3181,77.536 C392.3181,60.517 406.1631,46.672 423.1841,46.672 C431.4291,46.672 439.1791,49.881 445.0081,55.712 L446.1521,56.855 L435.0411,67.966 L433.8971,66.799 C431.1601,64.01 427.5391,62.473 423.7081,62.473 C415.6931,62.473 409.1721,69.23 409.1721,77.536 C409.1721,85.841 415.6931,92.598 423.7081,92.598 C427.5391,92.598 431.1601,91.061 433.8971,88.272 L435.0411,87.106 L446.1521,98.217 L445.0081,99.362 C439.1791,105.19 431.4271,108.401 423.1841,108.401" id="Fill-6" fill="#FDBA0D"></path>
        <g id="Group-10">
            <mask id="mask-2" fill="white">
                <use xlink:href="#path-1"></use>
            </mask>
            <g id="Clip-9"></g>
            <path d="M4.3345,62.6309 C0.6785,69.8439 -0.7235,78.0869 0.3525,86.1029 C1.4385,94.1879 5.0075,101.9209 10.5335,107.9339 C16.7585,114.7079 25.2425,119.2349 34.3495,120.5779 C43.3175,121.9009 52.6015,120.0879 60.4335,115.5319 C68.2275,110.9979 74.3415,103.8469 77.6245,95.4499 C80.5455,87.9809 81.1845,79.6869 79.4015,71.8639 C78.9555,69.9049 78.3595,67.9809 77.6235,66.1109 C76.2545,68.4829 63.2385,91.1259 61.8215,93.4769 C57.1875,101.1659 48.9385,105.8779 39.9445,105.8559 C30.8755,105.8319 22.2905,100.5389 18.0645,92.5479 C14.4405,85.6939 14.1835,77.3539 17.4365,70.3099 C18.1265,68.8159 18.9825,67.4059 19.8045,65.9839 C21.0195,63.8789 40.1975,30.6609 40.1975,30.6609 L53.4155,53.5559 L40.1965,76.4519 L33.9685,65.6649 C32.7585,67.7599 31.5485,69.8559 30.3395,71.9499 C29.8845,72.7369 29.4255,73.5229 28.9755,74.3129 C27.8235,76.3329 27.2095,78.6199 27.2405,80.9499 C27.3055,85.7359 30.0745,90.1929 34.3435,92.3589 C39.0255,94.7339 44.8425,93.9869 48.7755,90.5139 C50.5085,88.9819 51.5655,87.0319 52.6995,85.0679 C54.1675,82.5249 70.8915,53.5579 70.8915,53.5579 L40.3095,0.5869 L40.1975,0.3939 C40.1975,0.3939 5.9945,59.3559 4.3345,62.6309" id="Fill-8" fill="#FDBA0D" mask="url(#mask-2)"></path>
        </g>
    </g>
</svg>